<?xml version="1.0" encoding="iso-8859-1"?>
<!-- Generator: Adobe Illustrator 19.0.0, SVG Export Plug-In . SVG Version: 6.00 Build 0)  -->
<svg version="1.1" id="Capa_1" xmlns="http://www.w3.org/2000/svg" xmlns:xlink="http://www.w3.org/1999/xlink" x="0px" y="0px"
	 viewBox="0 0 512 512" style="enable-background:new 0 0 512 512;" xml:space="preserve">
<path style="fill:#CDD2DF;" d="M246.877,335.156l-70.034-70.034l207.69-207.69c16.399-16.399,36.697-28.363,58.987-34.768
	l49.959-14.356c6.234-1.791,12.003,3.978,10.212,10.212l-14.356,49.959c-6.405,22.29-18.369,42.588-34.768,58.987L246.877,335.156z"
	/>
<path style="fill:#BBC6D4;" d="M454.566,127.466c16.399-16.399,28.363-36.697,34.768-58.987L503.69,18.52
	c0.839-2.921,0.007-5.728-1.744-7.715l-129.31,129.311l-160.4,160.4l34.64,34.64L454.566,127.466z"/>
<rect x="74.202" y="352.078" transform="matrix(-0.7071 -0.7071 0.7071 -0.7071 -109.6216 769.4789)" style="fill:#FF9400;" width="60.703" height="110.729"/>
<polygon style="fill:#FF7A00;" points="122.237,346.838 122.237,346.838 150.337,374.938 72.04,453.236 43.939,425.136 
	43.939,425.136 86.863,468.059 165.161,389.762 "/>
<path style="fill:#FFE92F;" d="M176.838,405.185l-70.024-70.024c-2.914-2.914-2.914-7.638,0-10.552l22.132-22.132l80.576,80.576
	l-22.132,22.132C184.476,408.099,179.752,408.099,176.838,405.185z"/>
<path style="fill:#FFD82F;" d="M128.946,302.477l-11.799,11.799l49.152,49.152c8.62,8.62,8.62,22.597,0,31.218l0,0l10.54,10.54
	c2.914,2.914,7.638,2.914,10.552,0l22.132-22.132L128.946,302.477z"/>
<path style="fill:#FFC600;" d="M223.027,400.167L111.833,288.972c-19.826-19.826-19.826-51.971,0-71.797l0,0
	c4.712-4.712,12.351-4.712,17.063,0l165.928,165.928c4.712,4.712,4.712,12.351,0,17.063l0,0
	C274.998,419.993,242.853,419.993,223.027,400.167z"/>
<path style="fill:#F4AF00;" d="M294.824,383.103l-32.522-32.522c4.711,4.712,4.711,12.351-0.001,17.063l0,0
	c-19.826,19.826-51.971,19.826-71.797,0l-39.336-39.336l71.859,71.859c19.826,19.826,51.971,19.826,71.797,0l0,0
	C299.536,395.455,299.536,387.815,294.824,383.103z"/>
<path style="fill:#FFE92F;" d="M34.035,489.803l-11.839-11.839c-18.981-18.981-18.981-49.756,0-68.737l0,0
	c2.645-2.645,6.934-2.645,9.58,0l70.997,70.997c2.645,2.645,2.645,6.934,0,9.58l0,0C83.791,508.784,53.016,508.784,34.035,489.803z"
	/>
<path style="fill:#FFD82F;" d="M102.772,480.223l-9.581-9.581c-19.042,18.091-49.139,17.809-67.82-0.872l-11.839-11.839
	c-1.75-1.75-3.337-3.602-4.764-5.534c1.716,9.365,6.186,18.325,13.427,25.567l11.839,11.839c18.981,18.981,49.756,18.981,68.737,0
	l0,0C105.418,487.158,105.418,482.869,102.772,480.223z"/>
<path d="M507.242,4.757c-4.175-4.176-10.295-5.755-15.969-4.126l-49.959,14.356c-23.53,6.761-45.117,19.486-62.429,36.797
	l-155.681,156.21c-3.12,3.119-3.12,8.177,0,11.296c3.119,3.119,8.177,3.119,11.296,0L390.18,63.08
	c15.403-15.403,34.61-26.724,55.545-32.739l49.959-14.356c0.1-0.03,0.15-0.044,0.262,0.068c0.111,0.111,0.097,0.162,0.068,0.262
	l-14.356,49.959c-6.015,20.935-17.336,40.142-32.739,55.545L246.877,323.861l-23.345-23.345l154.752-154.752
	c3.12-3.119,3.12-8.177,0-11.296c-3.119-3.119-8.177-3.119-11.296,0L212.237,289.22l-24.098-24.098l19.548-19.548
	c3.12-3.119,3.12-8.177,0-11.296c-3.119-3.119-8.177-3.119-11.296,0l-19.548,19.548l-42.299-42.299
	c-3.787-3.788-8.823-5.873-14.18-5.873c-5.356,0.001-10.392,2.086-14.179,5.874c-11.097,11.097-17.209,25.852-17.209,41.546
	s6.112,30.449,17.209,41.546l9.661,9.661l-14.862,14.862c-5.923,5.923-5.923,15.56,0,21.483l8.085,8.085l-63.256,63.256
	l-8.388-8.388c-5.754-5.755-15.119-5.755-20.876,0c-22.065,22.065-22.065,57.968,0,80.033l11.839,11.839
	C39.42,506.483,53.912,512,68.404,512s28.984-5.517,40.017-16.55c5.755-5.755,5.754-15.12-0.001-20.875l-8.388-8.389l26.929-26.929
	c3.12-3.119,3.12-8.177,0-11.296c-3.119-3.119-8.177-3.119-11.296,0L88.736,454.89l-31.628-31.628l63.256-63.256l31.628,31.628
	l-12.898,12.897c-3.12,3.119-3.12,8.176,0,11.296c3.119,3.12,8.177,3.12,11.296,0l12.898-12.898l8.085,8.085
	c2.961,2.961,6.852,4.442,10.742,4.442s7.78-1.481,10.741-4.442l14.862-14.862l9.661,9.661
	c11.097,11.097,25.852,17.209,41.546,17.209s30.449-6.112,41.546-17.209c7.819-7.818,7.819-20.54,0-28.359l-42.299-42.299
	l202.042-202.042c17.312-17.312,30.036-38.899,36.797-62.429l14.356-49.959C512.999,15.051,511.418,8.932,507.242,4.757z
	 M39.683,484.155l-11.839-11.839c-15.55-15.55-15.831-40.675-0.845-56.572l13.161,13.161c0.002,0.002,0.003,0.004,0.005,0.005
	l42.924,42.924c0.002,0.002,0.004,0.003,0.005,0.005L96.254,485C80.357,499.986,55.233,499.704,39.683,484.155z M182.114,399.165
	l-13.173-13.173c-0.002-0.002-0.003-0.004-0.005-0.006l-42.924-42.924c-0.002-0.002-0.004-0.003-0.005-0.005l-13.173-13.173
	l14.308-14.309l69.281,69.281L182.114,399.165z M290.371,391.635c0,1.089-0.424,2.113-1.195,2.884
	c-8.08,8.08-18.823,12.53-30.25,12.53s-22.17-4.45-30.25-12.53l-15.309-15.309l-80.577-80.577l-15.309-15.309
	c-8.08-8.08-12.53-18.823-12.53-30.25c0-11.427,4.45-22.17,12.53-30.251c0.77-0.77,1.795-1.194,2.883-1.194
	c1.089,0,2.114,0.424,2.884,1.194l47.947,47.947l70.034,70.034l47.947,47.947C289.946,389.521,290.371,390.546,290.371,391.635z"/>
<g>
</g>
<g>
</g>
<g>
</g>
<g>
</g>
<g>
</g>
<g>
</g>
<g>
</g>
<g>
</g>
<g>
</g>
<g>
</g>
<g>
</g>
<g>
</g>
<g>
</g>
<g>
</g>
<g>
</g>
</svg>
